<?xml version="1.0" encoding="UTF-8" standalone="no"?><!DOCTYPE svg PUBLIC "-//W3C//DTD SVG 1.1//EN" "http://www.w3.org/Graphics/SVG/1.1/DTD/svg11.dtd"><svg width="100%" height="100%" viewBox="0 0 576 159" version="1.1" xmlns="http://www.w3.org/2000/svg" xmlns:xlink="http://www.w3.org/1999/xlink" xml:space="preserve" xmlns:serif="http://www.serif.com/" style="fill-rule:evenodd;clip-rule:evenodd;stroke-linejoin:round;stroke-miterlimit:2;"><rect x="307.263" y="0.542" width="269.572" height="120.447" style="fill:#083043;"/><g transform="matrix(1,0,0,0.986416,-5.68434e-14,-5.06296)"><g transform="matrix(106.874,0,0,106.874,570.722,109.93)"></g><text x="308.338px" y="109.93px" style="font-family:'Impact', sans-serif;font-stretch:condensed;font-size:106.874px;fill:#fff;stroke:#030303;stroke-width:1.01px;">Guard</text></g><rect x="1.513" y="9.366" width="284.131" height="89.122" style="fill:#083043;stroke:#083043;stroke-width:1px;stroke-linecap:round;stroke-miterlimit:1.5;"/><g transform="matrix(35.5036,0,0,35.5036,407.003,150.431)"></g><text x="134.208px" y="150.431px" style="font-family:'Constantia', serif;font-size:35.504px;fill:#083043;">J<tspan x="144.783px 161.824px " y="150.431px 150.431px ">an</tspan>it<tspan x="204.557px 223.747px " y="150.431px 150.431px ">or</tspan>ial Ser<tspan x="332.737px 349.882px 359.937px 375.626px 392.632px " y="150.431px 150.431px 150.431px 150.431px 150.431px ">vices</tspan></text><g transform="matrix(1.94482,0,0,2.05044,-232.419,-393.732)"><clipPath id="_clip1"><path d="M146.062,231.463l0,-7.978c0,-0.296 -0.077,-0.519 -0.233,-0.667c-0.155,-0.148 -0.344,-0.252 -0.567,-0.311l-4.911,-1.333l0,-1.845l14.311,0l0,1.845l-2.888,1.333c-0.163,0.074 -0.341,0.182 -0.534,0.322c-0.192,0.141 -0.289,0.36 -0.289,0.656l0,3.8c0,1.481 0.011,2.733 0.034,3.756c0.022,1.022 0.063,1.829 0.122,2.422c-1.704,0.607 -3.693,1.152 -5.967,1.633c-2.274,0.482 -4.559,0.722 -6.855,0.722c-2.919,0 -5.6,-0.652 -8.045,-1.955c-2.444,-1.304 -4.396,-3.226 -5.855,-5.767c-1.46,-2.541 -2.189,-5.678 -2.189,-9.411c-0,-3.556 0.718,-6.63 2.155,-9.222c1.437,-2.593 3.408,-4.593 5.911,-6c2.504,-1.408 5.341,-2.111 8.512,-2.111c2.014,-0 3.762,0.096 5.244,0.289c1.481,0.192 2.77,0.418 3.867,0.677c1.096,0.26 2.074,0.493 2.933,0.7l-0,8.645l-3.111,-0l-0.667,-4.889c-0.029,-0.237 -0.163,-0.433 -0.4,-0.589c-0.237,-0.156 -0.459,-0.27 -0.666,-0.344c-1.126,-0.445 -2.312,-0.8 -3.556,-1.067c-1.244,-0.267 -2.511,-0.4 -3.8,-0.4c-2.178,-0 -4.089,0.481 -5.733,1.444c-1.645,0.963 -2.926,2.426 -3.845,4.389c-0.918,1.963 -1.378,4.448 -1.378,7.456c0,2.978 0.474,5.607 1.423,7.889c0.948,2.281 2.322,4.063 4.122,5.344c1.8,1.282 3.974,1.922 6.522,1.922c1.022,0 1.945,-0.085 2.767,-0.255c0.822,-0.171 1.537,-0.363 2.144,-0.578c0.608,-0.215 1.082,-0.389 1.422,-0.522Zm11.067,3.6l0,-1.867l2.845,-1c0.251,-0.074 0.459,-0.189 0.622,-0.344c0.163,-0.156 0.244,-0.389 0.244,-0.7l0,-16.045c0,-0.385 -0.111,-0.678 -0.333,-0.878c-0.222,-0.2 -0.422,-0.337 -0.6,-0.411l-3.022,-1.333l-0,-1.911l8.355,-1.156l0,5.4l0.289,0c1.052,-1.481 2.007,-2.626 2.867,-3.433c0.859,-0.807 1.678,-1.37 2.455,-1.689c0.778,-0.318 1.552,-0.478 2.323,-0.478c0.696,0 1.466,0.089 2.311,0.267c0.844,0.178 1.585,0.593 2.222,1.244l-0,5.734l-3.245,-0l-0.666,-1.667c-0.148,-0.4 -0.463,-0.73 -0.945,-0.989c-0.481,-0.259 -0.981,-0.389 -1.5,-0.389c-0.903,0 -1.7,0.215 -2.389,0.645c-0.688,0.429 -1.307,0.952 -1.855,1.566c-0.548,0.615 -1.052,1.189 -1.511,1.723l-0,13.8c-0,0.533 0.289,0.881 0.866,1.044l3.712,1l-0,1.867l-13.045,-0Zm29.311,-29.689c-0.607,-0 -1.174,-0.119 -1.7,-0.356c-0.526,-0.237 -0.952,-0.577 -1.278,-1.022c-0.326,-0.444 -0.488,-0.985 -0.488,-1.622c-0,-1.037 0.351,-1.815 1.055,-2.333c0.704,-0.519 1.507,-0.778 2.411,-0.778c1.082,-0 1.948,0.237 2.6,0.711c0.652,0.474 0.978,1.192 0.978,2.155c-0,0.682 -0.156,1.267 -0.467,1.756c-0.311,0.489 -0.733,0.859 -1.266,1.111c-0.534,0.252 -1.149,0.378 -1.845,0.378Zm-6.555,29.689l-0,-1.867l3.711,-1c0.252,-0.074 0.466,-0.189 0.644,-0.344c0.178,-0.156 0.267,-0.389 0.267,-0.7l-0,-16.111c-0,-0.312 -0.089,-0.545 -0.267,-0.7c-0.178,-0.156 -0.385,-0.271 -0.622,-0.345l-3.689,-1.222l0,-1.933l9.333,-1.134l0,21.445c0,0.311 0.089,0.548 0.267,0.711c0.178,0.163 0.37,0.274 0.578,0.333l3.711,1l-0,1.867l-13.933,-0Zm32.755,-0l0,-1.867l2.2,-1c0.252,-0.118 0.463,-0.248 0.634,-0.389c0.17,-0.141 0.255,-0.396 0.255,-0.766l0,-11.312c0,-1.451 -0.126,-2.681 -0.378,-3.688c-0.252,-1.008 -0.748,-1.771 -1.489,-2.289c-0.74,-0.519 -1.844,-0.778 -3.311,-0.778c-0.992,-0 -2.04,0.155 -3.144,0.467c-1.104,0.311 -2.004,0.925 -2.7,1.844l-0,15.867c-0,0.311 0.089,0.537 0.267,0.677c0.177,0.141 0.377,0.263 0.6,0.367l2.088,1l0,1.867l-11.444,-0l-0,-1.867l2.867,-1c0.222,-0.074 0.422,-0.189 0.6,-0.344c0.177,-0.156 0.266,-0.389 0.266,-0.7l0,-16.378c0,-0.311 -0.089,-0.541 -0.266,-0.689c-0.178,-0.148 -0.378,-0.267 -0.6,-0.356l-2.867,-1.244l-0,-1.911l7.978,-1.156l-0,3.934l0.378,-0c1.407,-1.808 2.796,-2.949 4.166,-3.423c1.371,-0.474 2.671,-0.711 3.9,-0.711c1.452,0 2.693,0.237 3.722,0.711c1.03,0.474 1.856,1.108 2.478,1.9c0.622,0.793 1.045,1.678 1.267,2.656l0.378,0.644l-0,15.912c-0,0.37 0.085,0.625 0.255,0.766c0.171,0.141 0.374,0.271 0.611,0.389l2.023,1l-0,1.867l-10.734,-0Zm15.667,-0l-0,-1.867l2.311,-1c0.237,-0.104 0.444,-0.23 0.622,-0.378c0.178,-0.148 0.267,-0.407 0.267,-0.777l-0,-11.312c-0,-1.451 -0.13,-2.681 -0.389,-3.688c-0.259,-1.008 -0.763,-1.771 -1.511,-2.289c-0.748,-0.519 -1.871,-0.778 -3.367,-0.778c-0.948,-0 -2.007,0.174 -3.178,0.522c-1.17,0.348 -2.103,1.063 -2.8,2.145l-0.622,-1.223c1.185,-1.629 2.285,-2.811 3.3,-3.544c1.015,-0.733 1.963,-1.193 2.845,-1.378c0.881,-0.185 1.722,-0.278 2.522,-0.278c1.437,0 2.755,0.289 3.955,0.867c1.2,0.578 2.163,1.485 2.889,2.722c0.726,1.237 1.089,2.841 1.089,4.811l0,13.423c0,0.37 0.085,0.633 0.256,0.788c0.17,0.156 0.374,0.278 0.611,0.367l2.555,1l0,1.867l-11.355,-0Zm25.111,0.533c-2.282,0 -4.348,-0.496 -6.2,-1.489c-1.852,-0.992 -3.326,-2.455 -4.422,-4.389c-1.097,-1.933 -1.645,-4.292 -1.645,-7.077c0,-2.549 0.526,-4.834 1.578,-6.856c1.052,-2.022 2.5,-3.622 4.345,-4.8c1.844,-1.178 3.959,-1.767 6.344,-1.767c2.267,0 4.204,0.456 5.811,1.367c1.607,0.911 2.841,2.126 3.7,3.644c0.859,1.519 1.289,3.189 1.289,5.012c-0,0.192 -0.007,0.459 -0.022,0.8c-0.015,0.34 -0.041,0.685 -0.078,1.033c-0.037,0.348 -0.085,0.633 -0.144,0.855l-18.2,0l0.155,-2.644l13.178,-0c-0,-1.541 -0.193,-2.852 -0.578,-3.933c-0.385,-1.082 -1.015,-1.908 -1.889,-2.478c-0.874,-0.571 -2.044,-0.856 -3.511,-0.856c-1.393,0 -2.544,0.285 -3.455,0.856c-0.912,0.57 -1.63,1.329 -2.156,2.278c-0.526,0.948 -0.896,1.989 -1.111,3.122c-0.215,1.133 -0.322,2.27 -0.322,3.411c-0,2 0.3,3.767 0.9,5.3c0.6,1.533 1.559,2.737 2.877,3.611c1.319,0.874 3.052,1.311 5.2,1.311c1.171,0 2.286,-0.178 3.345,-0.533c1.059,-0.356 2.015,-0.778 2.867,-1.267c0.851,-0.489 1.551,-0.933 2.1,-1.333l0.755,-0l0,2.911c-1.2,0.918 -2.752,1.8 -4.655,2.644c-1.904,0.845 -3.923,1.267 -6.056,1.267Z" clip-rule="nonzero"/></clipPath><g clip-path="url(#_clip1)"><text x="119.507px" y="235.063px" style="font-family:'SitkaText', 'Sitka';font-size:50px;fill:#fff;">Gr<tspan x="177.618px " y="235.063px ">i</tspan>me</text><g transform="matrix(0.514187,0,0,0.4877,98.7731,56.7868)"><rect x="37.865" y="272.101" width="292.955" height="113.829" style="fill:#f6eaaf;stroke:#083043;stroke-width:1px;stroke-linecap:round;stroke-miterlimit:1.5;"/></g></g></g><rect x="423.739" y="144.814" width="122.212" height="1.765" style="fill:#083043;"/><rect x="444.475" y="132.902" width="100.593" height="1.324" style="fill:#083043;"/><rect x="5.042" y="145.696" width="122.212" height="1.765" style="fill:#083043;"/><rect x="5.483" y="132.461" width="100.593" height="1.324" style="fill:#083043;"/></svg>